<?xml version="1.0" encoding="utf-8"?>
<!-- Generator: Adobe Illustrator 23.0.3, SVG Export Plug-In . SVG Version: 6.00 Build 0)  -->
<svg version="1.1" id="レイヤー_1" xmlns="http://www.w3.org/2000/svg" xmlns:xlink="http://www.w3.org/1999/xlink" x="0px"
	 y="0px" viewBox="0 0 80 80" style="enable-background:new 0 0 80 80;" xml:space="preserve">
<style type="text/css">
	.st0{fill:#0B6F9E;}
</style>
<path class="st0" d="M66.5,17.19L60,5.94l-15.48,8.94l2.31,4l-3.89,2.25l-2.31-4L0.5,40.29L7,51.55c3.55-2.05,8.1-0.83,10.15,2.72
	c2.05,3.55,0.83,8.1-2.72,10.15L20,74.06L60.12,50.9l-2.31-4l3.89-2.25l2.31,4l15.48-8.94l-5.57-9.65
	c-3.55,2.05-8.1,0.83-10.15-2.72C61.73,23.79,62.95,19.25,66.5,17.19z M59.46,40.75L55.56,43l-4.07-7.04l3.89-2.25L59.46,40.75z
	 M53.14,29.82l-3.89,2.25l-4.07-7.04l3.89-2.25L53.14,29.82z"/>
</svg>
